<svg xmlns="http://www.w3.org/2000/svg" xmlns:xlink="http://www.w3.org/1999/xlink" width="1920" zoomAndPan="magnify" viewBox="0 0 1440 489.749987" height="653" preserveAspectRatio="xMidYMid meet" version="1.0"><defs><g/><clipPath id="27c19d5055"><path d="M 922.78125 8.402344 L 1069.707031 8.402344 L 1069.707031 233.289062 L 922.78125 233.289062 Z M 922.78125 8.402344 " clip-rule="nonzero"/></clipPath><clipPath id="8d3f52c3d8"><path d="M 536 249.082031 L 682.855469 249.082031 L 682.855469 473.96875 L 536 473.96875 Z M 536 249.082031 " clip-rule="nonzero"/></clipPath><clipPath id="b3b138b4a6"><path d="M 191.164062 249.082031 L 338 249.082031 L 338 473.96875 L 191.164062 473.96875 Z M 191.164062 249.082031 " clip-rule="nonzero"/></clipPath></defs><g fill="#ef4444" fill-opacity="1"><g transform="translate(0.367366, 225.012836)"><g><path d="M 17.3125 0 L 17.3125 -182.984375 L 155.328125 -182.984375 L 155.328125 -139.5625 L 64.09375 -139.5625 L 64.09375 -111.65625 L 139.3125 -111.65625 L 139.3125 -70.296875 L 64.09375 -70.296875 L 64.09375 -43.15625 L 155.328125 -43.15625 L 155.328125 0 Z M 17.3125 0 "/></g></g></g><g fill="#ef4444" fill-opacity="1"><g transform="translate(162.938795, 225.012836)"><g><path d="M 17.3125 0 L 17.3125 -182.984375 L 61 -182.984375 L 138.265625 -78.3125 L 138.265625 -182.984375 L 185.046875 -182.984375 L 185.046875 0 L 142.671875 0 L 64.09375 -103.125 L 64.09375 0 Z M 17.3125 0 "/></g></g></g><g fill="#ef4444" fill-opacity="1"><g transform="translate(365.313044, 225.012836)"><g><path d="M 17.3125 0 L 17.3125 -182.984375 L 155.328125 -182.984375 L 155.328125 -139.5625 L 64.09375 -139.5625 L 64.09375 -111.65625 L 139.3125 -111.65625 L 139.3125 -70.296875 L 64.09375 -70.296875 L 64.09375 -43.15625 L 155.328125 -43.15625 L 155.328125 0 Z M 17.3125 0 "/></g></g></g><g fill="#ef4444" fill-opacity="1"><g transform="translate(527.884466, 225.012836)"><g><path d="M 17.3125 0 L 17.3125 -182.984375 L 94.59375 -182.984375 C 102.863281 -182.984375 111.304688 -182.207031 119.921875 -180.65625 C 128.535156 -179.101562 136.546875 -176.21875 143.953125 -172 C 151.367188 -167.78125 157.316406 -161.707031 161.796875 -153.78125 C 166.273438 -145.851562 168.515625 -135.515625 168.515625 -122.765625 C 168.515625 -114.835938 167.304688 -107.382812 164.890625 -100.40625 C 162.484375 -93.425781 158.648438 -87.265625 153.390625 -81.921875 C 148.140625 -76.585938 141.207031 -72.28125 132.59375 -69 L 174.96875 0 L 121.734375 0 L 86.578125 -61.765625 L 64.09375 -61.765625 L 64.09375 0 Z M 64.09375 -102.859375 L 94.859375 -102.859375 C 99.335938 -102.859375 103.253906 -103.289062 106.609375 -104.15625 C 109.972656 -105.019531 112.816406 -106.269531 115.140625 -107.90625 C 117.460938 -109.539062 119.226562 -111.5625 120.4375 -113.96875 C 121.644531 -116.382812 122.25 -119.226562 122.25 -122.5 C 122.25 -127.332031 121.039062 -130.953125 118.625 -133.359375 C 116.21875 -135.773438 113.03125 -137.410156 109.0625 -138.265625 C 105.101562 -139.128906 100.625 -139.5625 95.625 -139.5625 L 64.09375 -139.5625 Z M 64.09375 -102.859375 "/></g></g></g><g fill="#ef4444" fill-opacity="1"><g transform="translate(711.391185, 225.012836)"><g><path d="M 97.4375 2.0625 C 79.175781 2.0625 63.28125 -1.769531 49.75 -9.4375 C 36.226562 -17.101562 25.757812 -28 18.34375 -42.125 C 10.9375 -56.257812 7.234375 -72.972656 7.234375 -92.265625 C 7.234375 -106.742188 9.34375 -119.710938 13.5625 -131.171875 C 17.789062 -142.628906 23.863281 -152.40625 31.78125 -160.5 C 39.707031 -168.59375 49.226562 -174.75 60.34375 -178.96875 C 71.457031 -183.195312 83.820312 -185.3125 97.4375 -185.3125 C 111.5625 -185.3125 124.523438 -182.941406 136.328125 -178.203125 C 148.128906 -173.460938 157.953125 -166.140625 165.796875 -156.234375 C 173.640625 -146.328125 178.59375 -133.707031 180.65625 -118.375 L 134.390625 -118.375 C 133.359375 -123.882812 131.332031 -128.273438 128.3125 -131.546875 C 125.300781 -134.828125 121.507812 -137.238281 116.9375 -138.78125 C 112.375 -140.332031 107.164062 -141.109375 101.3125 -141.109375 C 92.695312 -141.109375 85.457031 -139.644531 79.59375 -136.71875 C 73.738281 -133.789062 69.046875 -129.867188 65.515625 -124.953125 C 61.984375 -120.046875 59.441406 -114.617188 57.890625 -108.671875 C 56.335938 -102.734375 55.5625 -96.75 55.5625 -90.71875 C 55.5625 -82.613281 56.984375 -74.8125 59.828125 -67.3125 C 62.671875 -59.820312 67.320312 -53.75 73.78125 -49.09375 C 80.25 -44.445312 88.992188 -42.125 100.015625 -42.125 C 105.535156 -42.125 110.789062 -42.8125 115.78125 -44.1875 C 120.78125 -45.570312 125.003906 -47.769531 128.453125 -50.78125 C 131.898438 -53.800781 134.050781 -57.722656 134.90625 -62.546875 L 91.75 -62.546875 L 91.75 -101.828125 L 184.015625 -101.828125 L 184.015625 -95.109375 C 184.015625 -74.609375 180.910156 -57.117188 174.703125 -42.640625 C 168.503906 -28.171875 159.03125 -17.101562 146.28125 -9.4375 C 133.53125 -1.769531 117.25 2.0625 97.4375 2.0625 Z M 97.4375 2.0625 "/></g></g></g><g fill="#ef4444" fill-opacity="1"><g transform="translate(902.660626, 225.012836)"><g/></g></g><g fill="#ef4444" fill-opacity="1"><g transform="translate(977.614051, 225.012836)"><g/></g></g><g fill="#ef4444" fill-opacity="1"><g transform="translate(1052.572368, 225.012836)"><g><path d="M -1.296875 0 L 72.109375 -182.984375 L 119.65625 -182.984375 L 192.296875 0 L 141.890625 0 L 132.84375 -25.84375 L 58.15625 -25.84375 L 48.84375 0 Z M 72.890625 -67.96875 L 118.109375 -67.96875 L 95.890625 -130.78125 Z M 72.890625 -67.96875 "/></g></g></g><g fill="#ef4444" fill-opacity="1"><g transform="translate(1243.574368, 225.012836)"><g><path d="M 88.390625 2.0625 C 74.953125 2.0625 62.503906 -0.175781 51.046875 -4.65625 C 39.585938 -9.132812 30.195312 -16.109375 22.875 -25.578125 C 15.550781 -35.054688 11.113281 -47.117188 9.5625 -61.765625 L 56.59375 -61.765625 C 57.800781 -56.941406 60.039062 -53.019531 63.3125 -50 C 66.59375 -46.988281 70.6875 -44.796875 75.59375 -43.421875 C 80.507812 -42.046875 85.8125 -41.359375 91.5 -41.359375 C 94.9375 -41.359375 98.460938 -41.703125 102.078125 -42.390625 C 105.703125 -43.078125 108.765625 -44.367188 111.265625 -46.265625 C 113.765625 -48.160156 115.015625 -50.914062 115.015625 -54.53125 C 115.015625 -57.113281 114.28125 -59.222656 112.8125 -60.859375 C 111.351562 -62.503906 109.285156 -63.882812 106.609375 -65 C 103.941406 -66.125 100.625 -67.113281 96.65625 -67.96875 C 95.101562 -68.3125 93.507812 -68.65625 91.875 -69 C 90.238281 -69.351562 88.644531 -69.703125 87.09375 -70.046875 C 85.539062 -70.390625 83.90625 -70.734375 82.1875 -71.078125 C 73.394531 -72.972656 64.953125 -75.164062 56.859375 -77.65625 C 48.765625 -80.15625 41.613281 -83.472656 35.40625 -87.609375 C 29.207031 -91.742188 24.296875 -97.257812 20.671875 -104.15625 C 17.054688 -111.050781 15.25 -119.753906 15.25 -130.265625 C 15.25 -139.910156 16.972656 -148.050781 20.421875 -154.6875 C 23.867188 -161.320312 28.429688 -166.660156 34.109375 -170.703125 C 39.796875 -174.753906 46 -177.8125 52.71875 -179.875 C 59.4375 -181.945312 66.070312 -183.367188 72.625 -184.140625 C 79.175781 -184.921875 85.035156 -185.3125 90.203125 -185.3125 C 102.953125 -185.3125 114.148438 -182.941406 123.796875 -178.203125 C 133.441406 -173.460938 141.238281 -166.523438 147.1875 -157.390625 C 153.132812 -148.265625 156.710938 -137.238281 157.921875 -124.3125 L 112.6875 -124.3125 C 112.164062 -128.101562 110.613281 -131.332031 108.03125 -134 C 105.445312 -136.675781 102.128906 -138.742188 98.078125 -140.203125 C 94.035156 -141.671875 89.34375 -142.40625 84 -142.40625 C 80.894531 -142.40625 77.960938 -142.144531 75.203125 -141.625 C 72.453125 -141.113281 70.082031 -140.335938 68.09375 -139.296875 C 66.113281 -138.265625 64.519531 -136.972656 63.3125 -135.421875 C 62.113281 -133.878906 61.515625 -132.070312 61.515625 -130 C 61.515625 -127.238281 62.585938 -124.910156 64.734375 -123.015625 C 66.890625 -121.128906 70.078125 -119.492188 74.296875 -118.109375 C 78.523438 -116.734375 83.738281 -115.269531 89.9375 -113.71875 C 92.863281 -113.03125 95.707031 -112.382812 98.46875 -111.78125 C 101.226562 -111.175781 103.984375 -110.53125 106.734375 -109.84375 C 114.316406 -108.125 121.425781 -106.140625 128.0625 -103.890625 C 134.695312 -101.648438 140.554688 -98.722656 145.640625 -95.109375 C 150.722656 -91.492188 154.726562 -86.625 157.65625 -80.5 C 160.582031 -74.382812 162.046875 -66.59375 162.046875 -57.125 C 162.046875 -46.257812 159.976562 -37.078125 155.84375 -29.578125 C 151.707031 -22.085938 146.109375 -16.015625 139.046875 -11.359375 C 131.984375 -6.710938 124.054688 -3.3125 115.265625 -1.15625 C 106.484375 0.988281 97.523438 2.0625 88.390625 2.0625 Z M 88.390625 2.0625 "/></g></g></g><g fill="#facc15" fill-opacity="1"><g transform="translate(0.367366, 449.148407)"><g><path d="M 17.3125 0 L 17.3125 -182.984375 L 88.90625 -182.984375 C 108.207031 -182.984375 124.878906 -179.535156 138.921875 -172.640625 C 152.960938 -165.753906 163.816406 -155.503906 171.484375 -141.890625 C 179.148438 -128.273438 182.984375 -111.21875 182.984375 -90.71875 C 182.984375 -70.726562 179.28125 -54.015625 171.875 -40.578125 C 164.46875 -27.140625 153.785156 -17.015625 139.828125 -10.203125 C 125.867188 -3.398438 109.066406 0 89.421875 0 Z M 64.09375 -43.15625 L 89.9375 -43.15625 C 101.488281 -43.15625 110.578125 -45.179688 117.203125 -49.234375 C 123.835938 -53.285156 128.578125 -58.925781 131.421875 -66.15625 C 134.265625 -73.394531 135.6875 -81.753906 135.6875 -91.234375 C 135.6875 -100.367188 134.304688 -108.597656 131.546875 -115.921875 C 128.796875 -123.242188 123.972656 -129.015625 117.078125 -133.234375 C 110.179688 -137.453125 100.53125 -139.5625 88.125 -139.5625 L 64.09375 -139.5625 Z M 64.09375 -43.15625 "/></g></g></g><g fill="#facc15" fill-opacity="1"><g transform="translate(190.863861, 449.148407)"><g/></g></g><g fill="#facc15" fill-opacity="1"><g transform="translate(265.817287, 449.148407)"><g/></g></g><g fill="#facc15" fill-opacity="1"><g transform="translate(340.775611, 449.148407)"><g><path d="M 97.4375 2.0625 C 79.175781 2.0625 63.28125 -1.769531 49.75 -9.4375 C 36.226562 -17.101562 25.757812 -28 18.34375 -42.125 C 10.9375 -56.257812 7.234375 -72.972656 7.234375 -92.265625 C 7.234375 -106.742188 9.34375 -119.710938 13.5625 -131.171875 C 17.789062 -142.628906 23.863281 -152.40625 31.78125 -160.5 C 39.707031 -168.59375 49.226562 -174.75 60.34375 -178.96875 C 71.457031 -183.195312 83.820312 -185.3125 97.4375 -185.3125 C 111.5625 -185.3125 124.523438 -182.941406 136.328125 -178.203125 C 148.128906 -173.460938 157.953125 -166.140625 165.796875 -156.234375 C 173.640625 -146.328125 178.59375 -133.707031 180.65625 -118.375 L 134.390625 -118.375 C 133.359375 -123.882812 131.332031 -128.273438 128.3125 -131.546875 C 125.300781 -134.828125 121.507812 -137.238281 116.9375 -138.78125 C 112.375 -140.332031 107.164062 -141.109375 101.3125 -141.109375 C 92.695312 -141.109375 85.457031 -139.644531 79.59375 -136.71875 C 73.738281 -133.789062 69.046875 -129.867188 65.515625 -124.953125 C 61.984375 -120.046875 59.441406 -114.617188 57.890625 -108.671875 C 56.335938 -102.734375 55.5625 -96.75 55.5625 -90.71875 C 55.5625 -82.613281 56.984375 -74.8125 59.828125 -67.3125 C 62.671875 -59.820312 67.320312 -53.75 73.78125 -49.09375 C 80.25 -44.445312 88.992188 -42.125 100.015625 -42.125 C 105.535156 -42.125 110.789062 -42.8125 115.78125 -44.1875 C 120.78125 -45.570312 125.003906 -47.769531 128.453125 -50.78125 C 131.898438 -53.800781 134.050781 -57.722656 134.90625 -62.546875 L 91.75 -62.546875 L 91.75 -101.828125 L 184.015625 -101.828125 L 184.015625 -95.109375 C 184.015625 -74.609375 180.910156 -57.117188 174.703125 -42.640625 C 168.503906 -28.171875 159.03125 -17.101562 146.28125 -9.4375 C 133.53125 -1.769531 117.25 2.0625 97.4375 2.0625 Z M 97.4375 2.0625 "/></g></g></g><g fill="#facc15" fill-opacity="1"><g transform="translate(532.04515, 449.148407)"><g/></g></g><g fill="#facc15" fill-opacity="1"><g transform="translate(681.956892, 449.148407)"><g><path d="M 55.5625 0 L 55.5625 -139.5625 L 1.296875 -139.5625 L 1.296875 -182.984375 L 156.875 -182.984375 L 156.875 -139.5625 L 102.34375 -139.5625 L 102.34375 0 Z M 55.5625 0 "/></g></g></g><g fill="#facc15" fill-opacity="1"><g transform="translate(840.1345, 449.148407)"><g><path d="M -1.296875 0 L 72.109375 -182.984375 L 119.65625 -182.984375 L 192.296875 0 L 141.890625 0 L 132.84375 -25.84375 L 58.15625 -25.84375 L 48.84375 0 Z M 72.890625 -67.96875 L 118.109375 -67.96875 L 95.890625 -130.78125 Z M 72.890625 -67.96875 "/></g></g></g><g fill="#facc15" fill-opacity="1"><g transform="translate(1031.136485, 449.148407)"><g><path d="M 17.3125 0 L 17.3125 -182.984375 L 64.09375 -182.984375 L 64.09375 -43.15625 L 151.71875 -43.15625 L 151.71875 0 Z M 17.3125 0 "/></g></g></g><g clip-path="url(#27c19d5055)"><path fill="#ffce01" d="M 950.40625 8.4375 L 1036.050781 8.4375 L 991.695312 98.5 L 1069.703125 98.5 L 953.460938 233.339844 L 984.050781 142.53125 L 922.871094 142.53125 Z M 950.40625 8.4375 " fill-opacity="1" fill-rule="nonzero"/></g><g clip-path="url(#8d3f52c3d8)"><path fill="#ef4444" d="M 563.496094 249.117188 L 648.941406 249.117188 L 604.6875 339.304688 L 682.511719 339.304688 L 566.539062 474.335938 L 597.058594 383.398438 L 536.023438 383.398438 Z M 563.496094 249.117188 " fill-opacity="1" fill-rule="nonzero"/></g><g clip-path="url(#b3b138b4a6)"><path fill="#ef4444" d="M 218.726562 249.117188 L 304.171875 249.117188 L 259.917969 339.304688 L 337.746094 339.304688 L 221.773438 474.335938 L 252.292969 383.398438 L 191.253906 383.398438 Z M 218.726562 249.117188 " fill-opacity="1" fill-rule="nonzero"/></g></svg>